<?xml version="1.0" encoding="UTF-8" standalone="no"?>
<!-- Created with Inkscape (http://www.inkscape.org/) -->

<svg
   width="48.882286mm"
   height="12.7mm"
   viewBox="0 0 48.882286 12.7"
   version="1.1"
   id="svg1"
   xmlns="http://www.w3.org/2000/svg"
   xmlns:svg="http://www.w3.org/2000/svg">
  <defs
     id="defs1" />
  <g
     id="layer1"
     transform="translate(-19.007667,-30.814603)">
    <path
       d="m 19.960167,40.339603 q -0.2159,0 -0.4445,-0.1143 -0.2159,-0.1016 -0.3556,-0.3429 -0.1524,-0.2413 -0.1524,-0.6096 0,-0.4191 0.2032,-0.9398 0.2032,-0.5207 0.5461,-1.0287 0.3429,-0.5207 0.7874,-0.9525 0.4445,-0.4445 0.9271,-0.6985 0.4826,-0.2667 0.9525,-0.2667 0.2667,0 0.4064,0.1016 0.1524,0.0889 0.1524,0.2921 0,0.0508 -0.0127,0.0889 0,0.0381 -0.0127,0.0889 -0.0635,-0.1016 -0.1905,-0.1397 -0.1143,-0.0508 -0.2921,-0.0508 -0.4064,0 -0.8001,0.254 -0.381,0.2413 -0.7112,0.6477 -0.3175,0.3937 -0.5588,0.8509 -0.2413,0.4572 -0.381,0.889 -0.127,0.4191 -0.127,0.7112 0,0.2794 0.127,0.4445 0.127,0.1651 0.3302,0.1651 0.3429,0 0.8255,-0.4318 0.4953,-0.4318 1.0033,-1.2192 0.508,-0.7874 0.9144,-1.8415 0.2794,-0.7366 0.5715,-1.4986 0.3048,-0.762 0.6096,-1.4605 0.3048,-0.7112 0.5842,-1.2573 0.2921,-0.5588 0.5461,-0.8763 0.2667,-0.3302 0.4699,-0.3302 0.1016,0 0.1778,0.0889 0.0762,0.0762 0.0762,0.2032 0,0.2032 -0.2159,0.6985 -0.2032,0.4826 -0.5461,1.1684 -0.3302,0.6731 -0.6985,1.4732 -0.3683,0.8001 -0.7112,1.6256 -0.3302,0.8255 -0.5461,1.6002 -0.2032,0.762 -0.2032,1.397 0,0.3556 0.0381,0.5334 0.0381,0.1778 0.254,0.1778 0.2667,0 0.6223,-0.2286 0.3556,-0.2286 0.7112,-0.6477 0.3556,-0.4191 0.6223,-1.0033 l 0.1524,0.1143 q -0.2413,0.6477 -0.6604,1.1684 -0.4191,0.508 -0.9017,0.8001 -0.4699,0.3048 -0.9017,0.3048 -0.4699,0 -0.6604,-0.3175 -0.1778,-0.3048 -0.1778,-0.635 0,-0.2159 0.0635,-0.5715 0.0635,-0.3556 0.1778,-0.7874 -0.4064,0.6731 -0.8636,1.2192 -0.4572,0.5334 -0.9017,0.8382 -0.4318,0.3048 -0.8255,0.3048 z m 6.629394,0.1778 q -0.7747,0 -1.1684,-0.4318 -0.381,-0.4191 -0.381,-1.0414 0,-0.5715 0.2794,-1.2065 0.2921,-0.635 0.762,-1.1938 0.4826,-0.5588 1.0541,-0.9017 0.5715,-0.3556 1.1303,-0.3556 0.2921,0 0.5334,0.1524 0.254,0.1524 0.254,0.6223 0,0.4826 -0.2921,0.9144 -0.2794,0.4191 -0.7493,0.7493 -0.4572,0.3302 -1.016,0.5461 -0.5461,0.2032 -1.0922,0.254 -0.0254,0.127 -0.0381,0.2413 -0.0127,0.1143 -0.0127,0.2159 0,0.1905 0.0381,0.381 0.0508,0.1905 0.1651,0.3556 0.1143,0.1524 0.3048,0.2413 0.2032,0.0889 0.4953,0.0889 0.5461,0 1.0795,-0.3048 0.5334,-0.3175 0.9906,-0.8255 0.4572,-0.508 0.7747,-1.1176 l 0.1524,0.1143 q -0.3429,0.762 -0.8763,1.3208 -0.5207,0.5588 -1.143,0.8636 -0.6096,0.3175 -1.2446,0.3175 z m -0.6223,-2.1336 q 0.3429,-0.1143 0.7747,-0.3302 0.4318,-0.2286 0.8255,-0.5334 0.4064,-0.3048 0.6604,-0.6731 0.2667,-0.3683 0.2667,-0.7747 0,-0.1397 -0.0508,-0.2159 -0.0508,-0.0762 -0.2159,-0.0762 -0.3048,0 -0.6477,0.2413 -0.3429,0.2286 -0.6604,0.6096 -0.3175,0.381 -0.5715,0.8382 -0.254,0.4572 -0.381,0.9144 z m 4.089402,2.1717 q -0.3937,0 -0.6604,-0.2667 -0.2794,-0.254 -0.2794,-0.7874 0,-0.4572 0.2032,-0.9779 0.2032,-0.5334 0.5588,-1.0414 0.3556,-0.5207 0.8001,-0.9398 0.4572,-0.4318 0.9525,-0.6858 0.508,-0.254 1.0033,-0.254 0.4953,0 0.8255,0.2667 0.3302,0.254 0.3302,0.6858 0,0.3175 -0.1778,0.4318 -0.1651,0.1143 -0.4445,0.1143 0.0254,-0.1016 0.0381,-0.2159 0.0254,-0.127 0.0254,-0.2286 0,-0.2921 -0.1397,-0.4953 -0.1397,-0.2159 -0.4826,-0.2159 -0.3556,0 -0.7239,0.254 -0.3683,0.2413 -0.7112,0.6604 -0.3429,0.4064 -0.6096,0.889 -0.2667,0.4826 -0.4191,0.9525 -0.1524,0.4699 -0.1524,0.8382 0,0.4953 0.3429,0.4953 0.2921,0 0.635,-0.2667 0.3429,-0.2794 0.6985,-0.6985 0.3683,-0.4318 0.6985,-0.889 0.3302,-0.4572 0.5842,-0.8382 0.0508,-0.0762 0.0635,-0.0762 0.0762,0.0127 0.1905,0.0508 0.127,0.0381 0.2159,0.1016 0.0889,0.0635 0.0889,0.1651 0,0.1143 -0.1143,0.3175 -0.1143,0.1905 -0.254,0.4445 -0.1397,0.254 -0.254,0.5207 -0.1143,0.254 -0.1143,0.4826 0,0.1905 0.1016,0.381 0.1016,0.1778 0.3302,0.1778 0.3429,0 0.9017,-0.4953 0.5588,-0.508 1.1303,-1.5113 l 0.127,0.127 q -0.2667,0.6858 -0.6858,1.2065 -0.4191,0.5207 -0.9017,0.8128 -0.4699,0.2921 -0.9271,0.2921 -0.4699,0 -0.6985,-0.2794 -0.2159,-0.2794 -0.2159,-0.6096 0,-0.0762 0.0127,-0.1651 0.0127,-0.1016 0.0254,-0.2032 -0.5461,0.7366 -1.0033,1.1049 -0.4445,0.3683 -0.9144,0.3683 z m 7.124711,-0.2667 q -0.4318,0 -0.6858,-0.2286 -0.2413,-0.2286 -0.2413,-0.5969 0,-0.381 0.1778,-0.8001 0.1778,-0.4191 0.3429,-0.8255 0.1778,-0.4191 0.1778,-0.7493 0,-0.4064 -0.2413,-0.5969 -0.2286,-0.2032 -0.4699,-0.3683 -0.2921,0.7493 -0.6096,1.4224 -0.3175,0.6731 -0.5207,1.016 l -0.1143,-0.2159 q 0.1778,-0.3302 0.4572,-0.9652 0.2921,-0.635 0.5715,-1.4478 -0.127,-0.127 -0.127,-0.3048 0,-0.381 0.2159,-0.6223 0.2159,-0.2413 0.3175,-0.2413 0.1397,0 0.1524,0.127 0.0254,0.1143 0.0254,0.1778 0,0.0635 -0.0762,0.254 -0.0635,0.1778 -0.0635,0.2159 0,0.1778 0.1905,0.3302 0.2032,0.1397 0.4572,0.3302 0.254,0.1778 0.4445,0.4445 0.2032,0.254 0.2032,0.6604 0,0.381 -0.1651,0.7747 -0.1524,0.3937 -0.3175,0.7493 -0.1524,0.3556 -0.1524,0.6223 0,0.2286 0.1143,0.3048 0.1143,0.0762 0.2667,0.0762 0.3048,0 0.6223,-0.1905 0.3302,-0.1905 0.635,-0.4826 0.3048,-0.2921 0.5461,-0.6096 0.2413,-0.3302 0.3556,-0.6096 l 0.1651,0.127 q -0.2413,0.5334 -0.6604,1.0541 -0.4191,0.508 -0.9398,0.8382 -0.508,0.3302 -1.0541,0.3302 z m 6.438898,0 q -0.4953,0 -0.7366,-0.3175 -0.2413,-0.3048 -0.2413,-0.7493 0,-0.2921 0.1016,-0.7366 0.1143,-0.4445 0.2921,-0.9271 0.1778,-0.4953 0.4064,-0.9271 0.2413,-0.4318 0.508,-0.6985 0.2667,-0.2794 0.5207,-0.2794 0.1143,0 0.1905,0.0762 0.0889,0.0635 0.0889,0.2032 0,0.1524 -0.2032,0.4953 -0.1905,0.3429 -0.4572,0.7874 -0.2667,0.4445 -0.4699,0.9398 -0.1905,0.4826 -0.1905,0.9271 0,0.4572 0.1524,0.6096 0.1524,0.1524 0.4699,0.1524 0.4318,0 0.9144,-0.4318 0.4953,-0.4318 1.0414,-1.5113 l 0.1143,0.127 q -0.3683,1.0922 -1.0668,1.6764 -0.6858,0.5842 -1.4351,0.5842 z m 1.524,-5.8166 q -0.2032,0 -0.3683,-0.1016 -0.1524,-0.1016 -0.1524,-0.3175 0,-0.2667 0.3048,-0.4572 0.3175,-0.2032 0.6223,-0.2032 0.1905,0 0.3048,0.0889 0.1143,0.0889 0.1143,0.3048 0,0.2413 -0.2667,0.4699 -0.254,0.2159 -0.5588,0.2159 z m 7.023089,5.8801 q -0.4445,0 -0.6477,-0.2794 -0.2032,-0.2667 -0.2032,-0.6477 0,-0.3175 0.0889,-0.635 0.1016,-0.3175 0.1905,-0.6223 0.1016,-0.3048 0.1016,-0.5461 0,-0.254 -0.1143,-0.3556 -0.1143,-0.1016 -0.254,-0.1016 -0.3175,0 -0.6985,0.4953 -0.3683,0.4953 -0.9652,1.397 -0.2032,0.3048 -0.3429,0.6223 -0.1397,0.3048 -0.2667,0.5588 -0.1016,0 -0.254,-0.0254 -0.1524,-0.0254 -0.2794,-0.0889 -0.1143,-0.0508 -0.1143,-0.1397 0,-0.0889 0.1143,-0.4191 0.127,-0.3429 0.2794,-0.7874 0.1651,-0.4572 0.2794,-0.9144 0.127,-0.4699 0.127,-0.8001 0,-0.2159 -0.0762,-0.3429 -0.0635,-0.1397 -0.2413,-0.1397 -0.2794,0 -0.6731,0.3429 -0.3937,0.3302 -0.8128,0.8763 -0.4191,0.5461 -0.8001,1.2065 -0.368299,0.6477 -0.596899,1.2954 -0.1143,0 -0.2794,-0.0381 -0.1651,-0.0381 -0.2794,-0.1016 -0.127,-0.0635 -0.127,-0.127 0,-0.0762 0.1397,-0.4445 0.127,-0.381 0.3048,-0.9017 0.1651,-0.5334 0.2921,-1.0795 0.1397,-0.5461 0.1397,-0.9652 0.0762,-0.0889 0.241299,-0.1778 0.1651,-0.0889 0.3429,-0.0889 0.1778,0 0.254,0.0889 0.0889,0.0889 0.0889,0.2413 0,0.1651 -0.1016,0.5715 -0.0889,0.3937 -0.2286,0.8763 0.254,-0.4064 0.5715,-0.8255 0.3302,-0.4318 0.6858,-0.7874 0.3556,-0.3556 0.7112,-0.5715 0.3683,-0.2286 0.7112,-0.2286 0.3937,0 0.5334,0.2921 0.1524,0.2794 0.1524,0.6731 0,0.3175 -0.0762,0.6731 -0.0635,0.3429 -0.1524,0.6477 -0.0889,0.2921 -0.1651,0.4699 0.2667,-0.4826 0.5842,-0.9271 0.3302,-0.4572 0.7112,-0.7366 0.381,-0.2921 0.8128,-0.2921 0.4064,0 0.5588,0.2413 0.1651,0.2413 0.1651,0.5715 0,0.3302 -0.1143,0.7239 -0.1143,0.3937 -0.2413,0.762 -0.1143,0.3683 -0.1143,0.635 0,0.1651 0.0762,0.3048 0.0889,0.127 0.3048,0.127 0.3556,0 0.6604,-0.3175 0.3175,-0.3302 0.5842,-0.7874 0.2667,-0.4699 0.4572,-0.9017 l 0.1524,0.1778 q -0.2032,0.5334 -0.5207,1.0668 -0.3175,0.5207 -0.7493,0.8636 -0.4191,0.3429 -0.9271,0.3429 z m 2.285997,3.1623 q -0.2794,0 -0.508,-0.1778 -0.2286,-0.1651 -0.2286,-0.5588 0,-0.381 0.2413,-0.7112 0.2286,-0.3175 0.5969,-0.5969 0.3683,-0.2667 0.8001,-0.4953 0.4445,-0.2286 0.8382,-0.4318 0.1778,-0.4445 0.3302,-0.9525 0.1651,-0.5207 0.3175,-1.143 -0.4826,0.6985 -1.016,1.1684 -0.5207,0.4572 -1.0541,0.4572 -0.4572,0 -0.7112,-0.3429 -0.2413,-0.3429 -0.2413,-0.889 0,-0.6604 0.3175,-1.2573 0.3302,-0.5969 0.8509,-1.0541 0.5207,-0.4572 1.1049,-0.7112 0.5842,-0.2667 1.0922,-0.2667 0.3683,0 0.5207,0.127 0.1651,0.1143 0.1651,0.2794 0,0.1143 -0.0635,0.1778 -0.0635,0.0635 -0.0889,0.0762 -0.0635,-0.1016 -0.1905,-0.1397 -0.127,-0.0508 -0.3175,-0.0508 -0.4953,0 -0.9652,0.2921 -0.4572,0.2921 -0.8128,0.7493 -0.3556,0.4572 -0.5715,0.9525 -0.2032,0.4826 -0.2032,0.889 0,0.3048 0.1143,0.4699 0.127,0.1524 0.3302,0.1524 0.3683,0 0.8763,-0.4826 0.5207,-0.4953 1.0033,-1.1938 0.0381,-0.1778 0.0635,-0.3175 0.0381,-0.1397 0.0889,-0.3556 0.0381,-0.1778 0.1778,-0.4064 0.1524,-0.2413 0.4699,-0.2413 0.0635,0 0.127,0.0127 0.0635,0 0.1397,0.0254 0,0.2032 -0.127,0.7493 -0.1143,0.5334 -0.3429,1.2573 -0.2159,0.7112 -0.508,1.4732 0.4191,-0.2032 0.8128,-0.5207 0.4064,-0.3175 0.7366,-0.7239 0.3302,-0.4191 0.5207,-0.9017 l 0.1651,0.127 q -0.1905,0.5715 -0.6096,1.0414 -0.4191,0.4699 -0.9017,0.8128 -0.4699,0.3429 -0.8636,0.5334 -0.3556,0.8509 -0.7493,1.5494 -0.3937,0.7112 -0.8255,1.1303 -0.4191,0.4191 -0.9017,0.4191 z m -0.0381,-0.4064 q 0.254,0 0.6858,-0.508 0.4445,-0.4953 0.9525,-1.7145 -0.508,0.254 -0.9525,0.5207 -0.4318,0.2794 -0.7112,0.5842 -0.2794,0.3048 -0.2794,0.6731 0,0.2032 0.0889,0.3175 0.0889,0.127 0.2159,0.127 z m 5.4483,-2.7686 q -0.4318,0 -0.6985,-0.381 -0.254,-0.3937 -0.254,-0.9017 0,-0.3683 0.1143,-0.8509 0.127,-0.4826 0.3048,-0.9525 0.1778,-0.4699 0.3683,-0.7747 0.1905,-0.3048 0.3302,-0.3048 0.0635,0 0.2159,0.0762 0.1524,0.0635 0.254,0.1778 -0.1397,0.2159 -0.3429,0.6604 -0.2032,0.4445 -0.3556,0.9525 -0.1524,0.508 -0.1524,0.9398 0,0.1016 0.0254,0.3175 0.0254,0.2032 0.127,0.3683 0.1016,0.1651 0.3048,0.1651 0.2413,0 0.4953,-0.2413 0.254,-0.254 0.508,-0.6477 0.2667,-0.3937 0.508,-0.8509 0.2413,-0.4572 0.4445,-0.8763 0.2159,-0.4191 0.3556,-0.6985 0.0762,0.0127 0.2159,0.0508 0.1524,0.0381 0.2667,0.1016 0.127,0.0635 0.127,0.1778 0,0.0508 -0.127,0.3429 -0.127,0.2794 -0.3048,0.6985 -0.1651,0.4064 -0.2921,0.8255 -0.127,0.4191 -0.127,0.7366 0,0.2286 0.0889,0.3683 0.1016,0.1397 0.3302,0.1397 0.2667,0 0.6477,-0.2413 0.381,-0.2413 0.7747,-0.6985 0.3937,-0.4699 0.6985,-1.1176 l 0.1651,0.1143 q -0.2667,0.6858 -0.6985,1.2192 -0.4318,0.5207 -0.9144,0.8128 -0.4826,0.2921 -0.9398,0.2921 -0.3302,0 -0.5334,-0.127 -0.1905,-0.127 -0.2794,-0.3429 -0.0762,-0.2159 -0.0762,-0.4699 0,-0.1524 0.0254,-0.3048 0.0254,-0.1651 0.0635,-0.3302 -0.2286,0.4191 -0.4953,0.7874 -0.2667,0.3556 -0.5588,0.5715 -0.2921,0.2159 -0.6096,0.2159 z m 5.524496,-0.0508 q -0.4953,0 -0.7366,-0.3175 -0.2413,-0.3048 -0.2413,-0.7493 0,-0.2921 0.1016,-0.7366 0.1143,-0.4445 0.2921,-0.9271 0.1778,-0.4953 0.4064,-0.9271 0.2413,-0.4318 0.508,-0.6985 0.2667,-0.2794 0.5207,-0.2794 0.1143,0 0.1905,0.0762 0.0889,0.0635 0.0889,0.2032 0,0.1524 -0.2032,0.4953 -0.1905,0.3429 -0.4572,0.7874 -0.2667,0.4445 -0.4699,0.9398 -0.1905,0.4826 -0.1905,0.9271 0,0.4572 0.1524,0.6096 0.1524,0.1524 0.4699,0.1524 0.4318,0 0.9144,-0.4318 0.4953,-0.4318 1.0414,-1.5113 l 0.1143,0.127 q -0.3683,1.0922 -1.0668,1.6764 -0.6858,0.5842 -1.4351,0.5842 z m 1.524,-5.8166 q -0.2032,0 -0.3683,-0.1016 -0.1524,-0.1016 -0.1524,-0.3175 0,-0.2667 0.3048,-0.4572 0.3175,-0.2032 0.6223,-0.2032 0.1905,0 0.3048,0.0889 0.1143,0.0889 0.1143,0.3048 0,0.2413 -0.2667,0.4699 -0.254,0.2159 -0.5588,0.2159 z"
       id="text1"
       style="font-size:12.7px;font-family:'Dancing Script';-inkscape-font-specification:'Dancing Script';stroke-width:0.264583"
       aria-label="dear imgui" />
  </g>
</svg>
