<?xml version="1.0" encoding="UTF-8" standalone="no"?>
<!-- Created with Inkscape (http://www.inkscape.org/) -->

<svg
   width="94.354645mm"
   height="41.541111mm"
   viewBox="0 0 94.354645 41.541111"
   version="1.1"
   id="svg1"
   xml:space="preserve"
   xmlns="http://www.w3.org/2000/svg"
   xmlns:svg="http://www.w3.org/2000/svg"><defs
     id="defs1" /><g
     id="layer1"
     transform="translate(-48.886107,-100.16549)"><g
       fill="#61dafb"
       id="g1"
       transform="matrix(0.09508151,0,0,0.09508151,32.18029,92.749126)"><path
         d="m 666.3,296.5 c 0,-32.5 -40.7,-63.3 -103.1,-82.4 14.4,-63.6 8,-114.2 -20.2,-130.4 -6.5,-3.8 -14.1,-5.6 -22.4,-5.6 v 22.3 c 4.6,0 8.3,0.9 11.4,2.6 13.6,7.8 19.5,37.5 14.9,75.7 -1.1,9.4 -2.9,19.3 -5.1,29.4 -19.6,-4.8 -41,-8.5 -63.5,-10.9 -13.5,-18.5 -27.5,-35.3 -41.6,-50 32.6,-30.3 63.2,-46.9 84,-46.9 V 78 C 493.2,78 457.2,97.6 420.8,131.6 384.4,97.8 348.4,78.4 320.9,78.4 v 22.3 c 20.7,0 51.4,16.5 84,46.6 -14,14.7 -28,31.4 -41.3,49.9 -22.6,2.4 -44,6.1 -63.6,11 -2.3,-10 -4,-19.7 -5.2,-29 -4.7,-38.2 1.1,-67.9 14.6,-75.8 3,-1.8 6.9,-2.6 11.5,-2.6 V 78.5 c -8.4,0 -16,1.8 -22.6,5.6 -28.1,16.2 -34.4,66.7 -19.9,130.1 -62.2,19.2 -102.7,49.9 -102.7,82.3 0,32.5 40.7,63.3 103.1,82.4 -14.4,63.6 -8,114.2 20.2,130.4 6.5,3.8 14.1,5.6 22.5,5.6 27.5,0 63.5,-19.6 99.9,-53.6 36.4,33.8 72.4,53.2 99.9,53.2 8.4,0 16,-1.8 22.6,-5.6 28.1,-16.2 34.4,-66.7 19.9,-130.1 62,-19.1 102.5,-49.9 102.5,-82.3 z M 536.1,229.8 c -3.7,12.9 -8.3,26.2 -13.5,39.5 -4.1,-8 -8.4,-16 -13.1,-24 -4.6,-8 -9.5,-15.8 -14.4,-23.4 14.2,2.1 27.9,4.7 41,7.9 z m -45.8,106.5 c -7.8,13.5 -15.8,26.3 -24.1,38.2 -14.9,1.3 -30,2 -45.2,2 -15.1,0 -30.2,-0.7 -45,-1.9 -8.3,-11.9 -16.4,-24.6 -24.2,-38 -7.6,-13.1 -14.5,-26.4 -20.8,-39.8 6.2,-13.4 13.2,-26.8 20.7,-39.9 7.8,-13.5 15.8,-26.3 24.1,-38.2 14.9,-1.3 30,-2 45.2,-2 15.1,0 30.2,0.7 45,1.9 8.3,11.9 16.4,24.6 24.2,38 7.6,13.1 14.5,26.4 20.8,39.8 -6.3,13.4 -13.2,26.8 -20.7,39.9 z m 32.3,-13 c 5.4,13.4 10,26.8 13.8,39.8 -13.1,3.2 -26.9,5.9 -41.2,8 4.9,-7.7 9.8,-15.6 14.4,-23.7 4.6,-8 8.9,-16.1 13,-24.1 z M 421.2,430 c -9.3,-9.6 -18.6,-20.3 -27.8,-32 9,0.4 18.2,0.7 27.5,0.7 9.4,0 18.7,-0.2 27.8,-0.7 -9,11.7 -18.3,22.4 -27.5,32 z m -74.4,-58.9 c -14.2,-2.1 -27.9,-4.7 -41,-7.9 3.7,-12.9 8.3,-26.2 13.5,-39.5 4.1,8 8.4,16 13.1,24 4.7,8 9.5,15.8 14.4,23.4 z M 420.7,163 c 9.3,9.6 18.6,20.3 27.8,32 -9,-0.4 -18.2,-0.7 -27.5,-0.7 -9.4,0 -18.7,0.2 -27.8,0.7 9,-11.7 18.3,-22.4 27.5,-32 z m -74,58.9 c -4.9,7.7 -9.8,15.6 -14.4,23.7 -4.6,8 -8.9,16 -13,24 -5.4,-13.4 -10,-26.8 -13.8,-39.8 13.1,-3.1 26.9,-5.8 41.2,-7.9 z m -90.5,125.2 c -35.4,-15.1 -58.3,-34.9 -58.3,-50.6 0,-15.7 22.9,-35.6 58.3,-50.6 8.6,-3.7 18,-7 27.7,-10.1 5.7,19.6 13.2,40 22.5,60.9 -9.2,20.8 -16.6,41.1 -22.2,60.6 -9.9,-3.1 -19.3,-6.5 -28,-10.2 z M 310,490 c -13.6,-7.8 -19.5,-37.5 -14.9,-75.7 1.1,-9.4 2.9,-19.3 5.1,-29.4 19.6,4.8 41,8.5 63.5,10.9 13.5,18.5 27.5,35.3 41.6,50 -32.6,30.3 -63.2,46.9 -84,46.9 -4.5,-0.1 -8.3,-1 -11.3,-2.7 z m 237.2,-76.2 c 4.7,38.2 -1.1,67.9 -14.6,75.8 -3,1.8 -6.9,2.6 -11.5,2.6 -20.7,0 -51.4,-16.5 -84,-46.6 14,-14.7 28,-31.4 41.3,-49.9 22.6,-2.4 44,-6.1 63.6,-11 2.3,10.1 4.1,19.8 5.2,29.1 z m 38.5,-66.7 c -8.6,3.7 -18,7 -27.7,10.1 -5.7,-19.6 -13.2,-40 -22.5,-60.9 9.2,-20.8 16.6,-41.1 22.2,-60.6 9.9,3.1 19.3,6.5 28.1,10.2 35.4,15.1 58.3,34.9 58.3,50.6 -0.1,15.7 -23,35.6 -58.4,50.6 z"
         id="path1" /><circle
         cx="420.89999"
         cy="296.5"
         r="45.700001"
         id="circle1" /></g><g
       id="g3"
       transform="matrix(0.26458333,0,0,0.26458333,97.203258,94.068732)"><circle
         cx="100"
         cy="100"
         r="74"
         fill="#303846"
         id="circle1-8" /><g
         fill="none"
         stroke="#97dccf"
         stroke-miterlimit="10"
         stroke-width="5"
         id="g2"><path
           d="m 100.6,130.6 c 5.9,-10.3 6.3,-23.3 0,-34.3 -6.3,-11 -17.9,-17.1 -29.7,-17.1 -5.9,10.3 -6.3,23.3 0,34.3 6.3,10.9 17.8,17.1 29.7,17.1 z"
           id="path1-8" /><path
           d="m 99.4,130.6 c 11.8,0 23.3,-6.1 29.7,-17.1 6.3,-11 5.9,-24 0,-34.3 -11.8,0 -23.3,6.1 -29.7,17.1 -6.3,11 -5.9,24 0,34.3 z"
           id="path2" /></g><path
         fill="none"
         stroke="#97dccf"
         stroke-miterlimit="10"
         stroke-width="5"
         d="m 100,129.4 c 10.2,-5.9 17.1,-17 17.1,-29.7 C 117.1,87 110.2,75.9 100,70 89.8,75.9 82.9,87 82.9,99.7 c 0,12.7 6.9,23.8 17.1,29.7 z"
         id="path3" /></g></g></svg>
