<?xml version="1.0" encoding="UTF-8" standalone="no"?>
<!-- Created with Inkscape (http://www.inkscape.org/) -->

<svg
   width="178.9155mm"
   height="46.73772mm"
   viewBox="0 0 178.9155 46.73772"
   version="1.1"
   id="svg1"
   xml:space="preserve"
   xmlns:inkscape="http://www.inkscape.org/namespaces/inkscape"
   xmlns:sodipodi="http://sodipodi.sourceforge.net/DTD/sodipodi-0.dtd"
   xmlns="http://www.w3.org/2000/svg"
   xmlns:svg="http://www.w3.org/2000/svg"><sodipodi:namedview
     id="namedview1"
     pagecolor="#ffffff"
     bordercolor="#000000"
     borderopacity="0.25"
     inkscape:showpageshadow="2"
     inkscape:pageopacity="0.0"
     inkscape:pagecheckerboard="0"
     inkscape:deskcolor="#d1d1d1"
     inkscape:document-units="mm"><inkscape:page
       x="0"
       y="0"
       width="178.9155"
       height="46.73772"
       id="page2"
       margin="0"
       bleed="0" /></sodipodi:namedview><defs
     id="defs1"><style
       id="style1">
      .cls-1, .cls-2, .cls-3, .cls-4, .cls-5 {
        fill-rule: evenodd;
        stroke-linejoin: round;
      }

      .cls-6 {
        fill-rule: evenodd;
      }

      .cls-1 {
        fill: #005a9c;
        stroke: #005a9c;
      }

      .cls-2 {
        fill: #0066b0;
        stroke: #0066b0;
      }

      .cls-3 {
        fill: #0076cc;
        stroke: #0076cc;
      }

      .cls-4 {
        fill: #0086e8;
        stroke: #0086e8;
      }

      .cls-5 {
        fill: #0093ff;
        stroke: #0093ff;
      }
    </style><style
       id="style1-8">
      .cls-1, .cls-2, .cls-3, .cls-4, .cls-5 {
        fill-rule: evenodd;
        stroke-linejoin: round;
      }

      .cls-6 {
        fill-rule: evenodd;
      }

      .cls-1 {
        fill: #005a9c;
        stroke: #005a9c;
      }

      .cls-2 {
        fill: #0066b0;
        stroke: #0066b0;
      }

      .cls-3 {
        fill: #0076cc;
        stroke: #0076cc;
      }

      .cls-4 {
        fill: #0086e8;
        stroke: #0086e8;
      }

      .cls-5 {
        fill: #0093ff;
        stroke: #0093ff;
      }
    </style></defs><g
     inkscape:label="Layer 1"
     inkscape:groupmode="layer"
     id="layer1"
     transform="translate(-10.519628,-8.2159643)"><g
       id="g2"
       transform="matrix(0.10188013,0,0,0.10188013,72.899748,5.6689616)"
       inkscape:export-filename="g2.svg"
       inkscape:export-xdpi="96"
       inkscape:export-ydpi="96"><g
         id="g7">
	<g
   id="g6">
		<path
   fill="#5586a4"
   d="m 182.039,212.314 c 3.851,-11.769 9.633,-22.192 17.334,-31.26 7.701,-9.067 17.29,-16.309 28.753,-21.711 11.464,-5.404 24.814,-8.111 40.046,-8.111 15.226,0 28.577,2.708 40.04,8.111 11.463,5.402 21.052,12.644 28.753,21.711 7.701,9.067 13.483,19.491 17.333,31.26 3.851,11.768 5.782,24.018 5.782,36.749 0,12.731 -1.931,24.986 -5.782,36.754 -3.85,11.769 -9.632,22.192 -17.333,31.261 -7.701,9.066 -17.29,16.264 -28.753,21.581 -11.463,5.311 -24.814,7.976 -40.04,7.976 -15.231,0 -28.582,-2.664 -40.046,-7.976 -11.463,-5.317 -21.052,-12.515 -28.753,-21.581 -7.701,-9.068 -13.483,-19.492 -17.334,-31.261 -3.851,-11.768 -5.776,-24.023 -5.776,-36.754 0,-12.731 1.926,-24.981 5.776,-36.749 z m 23.438,64.702 c 2.513,9.165 6.459,17.412 11.842,24.741 5.379,7.332 12.284,13.223 20.718,17.677 8.427,4.452 18.47,6.673 30.135,6.673 11.66,0 21.702,-2.221 30.136,-6.673 8.427,-4.454 15.333,-10.345 20.717,-17.677 5.378,-7.329 9.323,-15.576 11.835,-24.741 2.512,-9.166 3.769,-18.461 3.769,-27.886 0,-9.425 -1.257,-18.713 -3.769,-27.879 -2.512,-9.166 -6.458,-17.412 -11.835,-24.747 -5.385,-7.328 -12.29,-13.218 -20.717,-17.671 -8.434,-4.453 -18.477,-6.68 -30.136,-6.68 -11.665,0 -21.707,2.227 -30.135,6.68 -8.434,4.454 -15.339,10.344 -20.718,17.671 -5.384,7.335 -9.329,15.581 -11.842,24.747 -2.512,9.165 -3.762,18.454 -3.762,27.879 0,9.425 1.25,18.72 3.762,27.886 z"
   id="path1" />
		<path
   fill="#5586a4"
   d="m 397.94,223.478 v 16.135 h 0.404 c 3.296,-6.606 8.478,-11.411 15.548,-14.409 7.07,-2.997 14.84,-4.496 23.324,-4.496 9.419,0 17.625,1.69 24.618,5.07 6.988,3.38 12.795,7.945 17.429,13.699 4.633,5.761 8.124,12.398 10.485,19.918 2.355,7.523 3.535,15.506 3.535,23.949 0,8.444 -1.143,16.426 -3.416,23.951 -2.279,7.523 -5.731,14.087 -10.365,19.688 -4.633,5.601 -10.447,10.017 -17.435,13.236 -6.995,3.221 -15.118,4.835 -24.385,4.835 -2.986,0 -6.325,-0.307 -10.012,-0.919 -3.692,-0.621 -7.341,-1.614 -10.952,-2.996 -3.61,-1.382 -7.032,-3.271 -10.251,-5.65 -3.219,-2.381 -5.927,-5.335 -8.124,-8.876 h -0.404 v 61.471 h -20.2 V 223.478 Z m 71.697,42.337 c -1.49,-5.292 -3.755,-10.011 -6.81,-14.156 -3.056,-4.144 -6.975,-7.444 -11.754,-9.898 -4.785,-2.455 -10.383,-3.683 -16.803,-3.683 -6.742,0 -12.46,1.308 -17.157,3.917 -4.703,2.609 -8.54,6.02 -11.52,10.239 -2.979,4.219 -5.132,9.018 -6.464,14.391 -1.332,5.371 -1.995,10.818 -1.995,16.338 0,5.835 0.7,11.474 2.115,16.919 1.407,5.454 3.642,10.245 6.698,14.391 3.054,4.145 7.006,7.482 11.867,10.012 4.86,2.533 10.738,3.798 17.63,3.798 6.893,0 12.65,-1.301 17.271,-3.91 4.621,-2.609 8.346,-6.062 11.167,-10.362 2.816,-4.293 4.854,-9.202 6.11,-14.729 1.25,-5.527 1.881,-11.202 1.881,-17.036 -0.002,-5.524 -0.747,-10.933 -2.236,-16.231 z"
   id="path2" />
		<path
   fill="#5586a4"
   d="m 596.31,334.933 c -9.129,6.748 -20.61,10.121 -34.461,10.121 -9.759,0 -18.224,-1.534 -25.382,-4.6 -7.165,-3.071 -13.186,-7.371 -18.066,-12.898 -4.879,-5.526 -8.54,-12.125 -10.977,-19.804 -2.436,-7.675 -3.812,-16.045 -4.128,-25.099 0,-9.055 1.414,-17.344 4.254,-24.87 2.834,-7.524 6.811,-14.05 11.931,-19.577 5.119,-5.527 11.185,-9.819 18.192,-12.891 7.007,-3.071 14.689,-4.607 23.041,-4.607 10.87,0 19.884,2.195 27.054,6.575 7.172,4.385 12.922,9.961 17.252,16.728 4.331,6.772 7.329,14.155 8.983,22.148 1.654,8 2.323,15.612 2.008,22.841 h -91.303 c -0.158,5.212 0.467,10.153 1.881,14.828 1.414,4.675 3.687,8.814 6.83,12.417 3.144,3.601 7.146,6.469 12.019,8.615 4.867,2.147 10.599,3.22 17.195,3.22 8.477,0 15.428,-1.917 20.844,-5.761 5.416,-3.843 8.988,-9.683 10.718,-17.529 h 19.821 c -2.677,13.348 -8.578,23.395 -17.706,30.143 z m -4.894,-76.403 c -1.803,-4.133 -4.234,-7.698 -7.289,-10.683 -3.062,-2.985 -6.672,-5.36 -10.827,-7.124 -4.16,-1.764 -8.749,-2.646 -13.767,-2.646 -5.176,0 -9.847,0.882 -14.001,2.646 -4.16,1.764 -7.726,4.176 -10.706,7.235 -2.98,3.065 -5.334,6.631 -7.058,10.689 -1.729,4.059 -2.746,8.388 -3.061,12.983 H 594.6 c -0.317,-4.595 -1.377,-8.962 -3.184,-13.1 z"
   id="path3" />
		<path
   fill="#5586a4"
   d="m 648.387,223.478 v 18.905 h 0.379 c 8.369,-14.446 21.645,-21.675 39.818,-21.675 8.055,0 14.769,1.079 20.148,3.232 5.371,2.153 9.715,5.15 13.035,8.994 3.32,3.842 5.65,8.413 6.994,13.717 1.338,5.305 2.014,11.184 2.014,17.641 v 78.395 H 710.576 V 262.04 c 0,-7.371 -2.211,-13.206 -6.623,-17.511 -4.418,-4.3 -10.484,-6.453 -18.205,-6.453 -6.146,0 -11.469,0.926 -15.963,2.77 -4.494,1.845 -8.238,4.453 -11.23,7.833 -2.99,3.38 -5.238,7.334 -6.734,11.861 -1.502,4.533 -2.248,9.486 -2.248,14.865 v 67.279 H 629.374 V 223.478 Z"
   id="path4" />
		<path
   fill="#5586a4"
   d="m 870.412,341.391 c -9.121,3.757 -18.332,5.639 -27.623,5.639 -14.67,0 -27.857,-2.5 -39.572,-7.483 -11.717,-4.989 -21.594,-11.86 -29.643,-20.619 -8.049,-8.752 -14.217,-19.04 -18.51,-30.858 -4.291,-11.817 -6.437,-24.561 -6.437,-38.217 0,-14.001 2.141,-27.004 6.42,-39 4.281,-11.991 10.434,-22.451 18.463,-31.383 8.031,-8.932 17.897,-15.932 29.605,-21.015 11.709,-5.076 24.896,-7.617 39.566,-7.617 9.834,0 19.354,1.449 28.562,4.343 9.211,2.898 17.525,7.154 24.949,12.767 7.422,5.613 13.545,12.533 18.373,20.755 4.83,8.228 7.785,17.665 8.857,28.323 h -40.234 c -2.506,-10.479 -7.336,-18.344 -14.488,-23.586 -7.158,-5.243 -15.83,-7.864 -26.02,-7.864 -9.48,0 -17.529,1.794 -24.144,5.384 -6.615,3.59 -11.982,8.408 -16.098,14.446 -4.115,6.044 -7.107,12.915 -8.98,20.619 -1.883,7.704 -2.816,15.667 -2.816,23.895 0,7.883 0.939,15.543 2.82,22.982 1.883,7.438 4.881,14.136 8.996,20.089 4.115,5.951 9.488,10.719 16.115,14.309 6.623,3.59 14.682,5.385 24.178,5.385 13.963,0 24.744,-3.44 32.355,-10.325 7.613,-6.883 12.045,-16.863 13.301,-29.939 H 846.026 V 241.63 h 80.357 v 101.199 h -26.738 l -4.281,-21.23 c -7.511,9.436 -15.831,16.036 -24.952,19.792 z"
   id="path5" />
		<path
   fill="#5586a4"
   d="m 994.678,155.574 v 152.374 h 93.354 v 34.737 H 952.662 V 155.574 Z"
   id="path6" />
	</g>
	<path
   fill="#5586a4"
   d="m 795.977,365.945 c -64.285,38.205 -160.568,59.951 -267.996,59.951 -193.548,0 -350.451,-78.75 -350.451,-175.897 0,-97.147 156.903,-175.897 350.451,-175.897 107.822,0 204.496,22.149 268.783,60.593 C 726.594,70.282 600.779,25.022 456.926,25 236.608,24.965 57.988,125.675 57.969,249.938 57.95,374.199 236.537,474.97 456.856,475 600.137,475.024 725.625,429.908 795.977,365.945 Z"
   id="path7" />
</g><g
         id="g8">
	<path
   fill="#5586a4"
   d="m 1143.848,325.427 c 0,3.141 -0.786,6.067 -2.356,8.779 -1.57,2.712 -3.711,4.85 -6.423,6.412 -2.712,1.563 -5.639,2.345 -8.779,2.345 -3.126,0 -6.045,-0.781 -8.757,-2.345 -2.712,-1.562 -4.854,-3.7 -6.424,-6.412 -1.571,-2.712 -2.355,-5.639 -2.355,-8.779 0,-3.126 0.784,-6.048 2.355,-8.769 1.57,-2.72 3.712,-4.86 6.424,-6.424 2.712,-1.562 5.631,-2.344 8.757,-2.344 3.141,0 6.067,0.781 8.779,2.344 2.712,1.564 4.853,3.704 6.423,6.424 1.57,2.721 2.356,5.643 2.356,8.769 z m -3.402,0 c 0,-3.907 -1.383,-7.244 -4.148,-10.01 -2.767,-2.766 -6.103,-4.148 -10.009,-4.148 -3.907,0 -7.244,1.383 -10.01,4.148 -2.766,2.766 -4.148,6.103 -4.148,10.01 0,3.907 1.383,7.243 4.148,10.009 2.766,2.766 6.103,4.148 10.01,4.148 3.906,0 7.242,-1.383 10.009,-4.148 2.765,-2.766 4.148,-6.102 4.148,-10.009 z m -22.11,-9.377 h 8.39 c 2.374,0 4.095,0.478 5.159,1.436 1.064,0.957 1.598,2.24 1.598,3.85 0,1.256 -0.406,2.344 -1.218,3.264 -0.812,0.919 -2.092,1.586 -3.839,1.999 0.72,0.276 1.249,0.567 1.586,0.873 0.475,0.43 0.973,1.065 1.494,1.908 0.03,0.061 1.041,1.87 3.034,5.424 h -5.517 c -1.792,-3.569 -2.995,-5.704 -3.607,-6.401 -0.614,-0.696 -1.227,-1.046 -1.84,-1.046 -0.138,0 -0.33,0.023 -0.574,0.069 v 7.378 h -4.666 z m 4.666,7.951 h 2.022 c 1.348,0 2.299,-0.218 2.851,-0.654 0.551,-0.438 0.827,-1 0.827,-1.69 0,-0.689 -0.265,-1.253 -0.793,-1.689 -0.529,-0.437 -1.43,-0.654 -2.701,-0.654 h -2.206 z"
   id="path8" />
</g></g><g
       id="g3"
       transform="matrix(0.0805314,0,0,0.0805314,8.5675435,1.3133551)"><path
         id="Triangle_4"
         data-name="Triangle 4"
         class="cls-4"
         d="M 626.63,295.5 566.441,191.25 h 120.55 z" /><path
         id="Triangle_5"
         data-name="Triangle 5"
         class="cls-5"
         d="m 626.63,87.001 -60.189,104.25 h 120.55 z" /><path
         id="Triangle_3"
         data-name="Triangle 3"
         class="cls-3"
         d="M 506.26,504 385.88,295.5 626.64,295.498 Z" /><path
         id="Triangle_2"
         data-name="Triangle 2"
         class="cls-2"
         d="M 506.26,87 385.88,295.5 626.64,295.498 Z" /><path
         id="Triangle_1"
         data-name="Triangle 1"
         class="cls-1"
         d="M 265.5,504 24.74,87 h 481.51 z" /><path
         id="WebGPU"
         class="cls-6"
         d="m 168.627,547.469 -25.7,98.943 -26.877,-98.943 H 98.913 L 70.692,646.748 45.158,547.469 H 28.864 l 32.757,117.253 16.966,-0.168 28.221,-94.239 27.214,94.239 h 17.134 L 185.089,547.469 Z M 285.879,615 A 46.371,46.371 0 0 0 280.42,592.406 39.572,39.572 0 0 0 264.881,576.7 46.213,46.213 0 0 0 241.7,570.989 a 47.756,47.756 0 0 0 -23.77,5.8 40.093,40.093 0 0 0 -16.043,16.547 q -5.712,10.752 -5.711,25.029 0.001,14.277 5.879,25.114 a 41.6,41.6 0 0 0 16.211,16.714 46.506,46.506 0 0 0 23.434,5.88 q 16.461,0 27.549,-8.315 a 39.581,39.581 0 0 0 14.783,-21.586 h -16.463 a 24.459,24.459 0 0 1 -9.323,12.347 q -6.637,4.621 -16.546,4.619 a 29.643,29.643 0 0 1 -20.579,-7.643 q -8.484,-7.643 -9.323,-21.25 h 73.578 a 90.2,90.2 0 0 0 0.5,-9.239 v 0 z m -15.79,-3.192 h -58.123 q 1.174,-13.1 9.323,-20.494 a 28.334,28.334 0 0 1 19.739,-7.391 32.747,32.747 0 0 1 14.7,3.275 25.141,25.141 0 0 1 10.5,9.575 28.211,28.211 0 0 1 3.864,15.035 v 0 z m 51.234,-22.174 v -49.388 h -15.286 v 124.308 h 15.286 v -16.966 a 35.4,35.4 0 0 0 13.523,13.27 40.944,40.944 0 0 0 20.914,5.208 41.878,41.878 0 0 0 37.965,-23.014 52.85,52.85 0 0 0 5.711,-24.862 q 0,-14.111 -5.711,-24.777 a 41.656,41.656 0 0 0 -15.625,-16.547 42.963,42.963 0 0 0 -22.342,-5.879 40.769,40.769 0 0 0 -20.662,5.207 36.153,36.153 0 0 0 -13.775,13.439 v 0 z m 62.491,28.557 a 38.312,38.312 0 0 1 -4.2,18.395 29.538,29.538 0 0 1 -11.339,11.927 30.881,30.881 0 0 1 -15.707,4.115 30.554,30.554 0 0 1 -15.538,-4.115 30.081,30.081 0 0 1 -11.423,-11.927 40.557,40.557 0 0 1 0,-36.285 30.1,30.1 0 0 1 11.423,-11.927 30.574,30.574 0 0 1 15.538,-4.115 31.392,31.392 0 0 1 15.707,4.031 29.1,29.1 0 0 1 11.339,11.759 37.449,37.449 0 0 1 4.2,18.142 z M 526.6,581.4 a 52.873,52.873 0 0 0 -20.914,-26.038 q -14.363,-9.236 -33.008,-9.239 a 59.1,59.1 0 0 0 -29.734,7.643 55.966,55.966 0 0 0 -21.25,21.334 64.565,64.565 0 0 0 0,61.567 56.107,56.107 0 0 0 21.25,21.25 59.068,59.068 0 0 0 29.734,7.643 56.956,56.956 0 0 0 28.053,-6.971 56.039,56.039 0 0 0 20.326,-18.983 58.146,58.146 0 0 0 9.071,-26.457 v -11.757 h -62.995 v 12.431 h 46.7 q -1.851,17.477 -12.933,27.717 -11.082,10.24 -28.221,10.247 a 43.637,43.637 0 0 1 -22.091,-5.627 39.867,39.867 0 0 1 -15.454,-16.043 q -5.629,-10.413 -5.627,-24.189 0.002,-13.776 5.627,-24.274 a 39.775,39.775 0 0 1 15.454,-16.127 43.657,43.657 0 0 1 22.091,-5.627 40.519,40.519 0 0 1 21.5,5.627 36.439,36.439 0 0 1 14.11,15.873 z m 101.967,0.336 q 0,-15.119 -10.331,-24.694 -10.331,-9.575 -30.153,-9.575 h -37.8 v 117.087 h 15.287 v -48.883 h 22.51 q 20.493,0 30.489,-9.659 9.996,-9.659 10,-24.274 v 0 z m -40.484,21.334 h -22.51 v -43 h 22.51 q 24.858,0 24.861,21.67 0,10.248 -6.047,15.79 -6.047,5.542 -18.814,5.544 v 0 z m 59.129,-55.6 v 73.913 q 0,14.615 5.8,24.61 a 36.383,36.383 0 0 0 15.79,14.866 54.05,54.05 0 0 0 44.852,0 36.913,36.913 0 0 0 15.875,-14.866 Q 735.4,636 735.4,621.382 v -73.913 h -15.283 v 74.081 q 0,15.623 -7.644,23.182 -7.644,7.559 -21.082,7.559 -13.606,0 -21.25,-7.559 -7.644,-7.559 -7.641,-23.182 v -74.081 h -15.289 z" /></g></g></svg>
